<svg width="150" height="61" viewBox="0 0 150 61" fill="none" xmlns="http://www.w3.org/2000/svg">
<path d="M16.0582 23.3883L15.9976 23.5256C15.9956 23.5149 15.9956 23.504 15.9976 23.4933C15.9976 23.4529 15.9976 23.4125 15.9976 23.3721C15.9956 23.3453 15.9956 23.3183 15.9976 23.2914L16.0582 23.3883Z" fill="url(#paint0_linear_300_51)"/>
<path d="M19.4131 26.9343L19.3848 26.9989L19.3242 26.8414L19.4131 26.9343Z" fill="url(#paint1_linear_300_51)"/>
<path d="M13.5984 27.0474C13.7818 27.242 13.9043 27.486 13.9509 27.7493C13.9975 28.0126 13.9663 28.2838 13.8609 28.5295L13.5984 29.1515L3.90562 51.8771C3.79954 52.125 3.62301 52.3363 3.39794 52.4848C3.17286 52.6333 2.90915 52.7125 2.6395 52.7125C2.36985 52.7125 2.10614 52.6333 1.88106 52.4848C1.65599 52.3363 1.47946 52.125 1.37338 51.8771C1.34511 51.8084 1.31684 51.7438 1.2926 51.6752C0.42744 49.5225 -0.0114775 47.2223 0.000228106 44.9023V4.20867C-0.0042468 3.84015 0.0722923 3.47514 0.22443 3.13946C0.376568 2.80378 0.600589 2.50563 0.880659 2.26607C1.49454 1.7572 2.45574 1.45833 3.84101 2.39127L11.466 7.76674C12.1331 8.32273 12.6695 9.01874 13.0374 9.80537C13.4052 10.592 13.5954 11.4499 13.5944 12.3183V14.4063C13.5935 14.6812 13.5104 14.9496 13.3557 15.1768C13.201 15.4041 12.9819 15.5798 12.7264 15.6815C12.471 15.7831 12.191 15.806 11.9225 15.7472C11.654 15.6883 11.4092 15.5505 11.2197 15.3514L8.39259 12.3749C8.18679 12.1614 7.91774 12.0198 7.62524 11.971L7.41523 11.9346C7.18715 11.895 6.95612 11.8747 6.72462 11.8741C6.28944 11.8683 5.85765 11.9512 5.4556 12.1179C5.05355 12.2845 4.68969 12.5314 4.38623 12.8433C3.7292 13.5942 3.38518 14.5685 3.42502 15.5654V15.8077C3.44006 16.1349 3.57189 16.4458 3.79658 16.6841L13.5702 27.0554L13.5984 27.0474Z" fill="url(#paint2_linear_300_51)"/>
<path d="M36.6427 48.1777C36.4595 48.4652 36.291 48.7617 36.1379 49.0662C35.7623 49.8134 34.5022 51.6833 30.6412 54.0459C29.2035 54.9263 27.7657 55.8068 26.3441 56.7195C25.1688 57.4707 23.626 58.4077 21.946 59.2841C19.7007 60.4642 17.1921 61.0534 14.6562 60.9962C12.1204 60.939 9.64086 60.2372 7.45117 58.9569C7.92487 58.5511 8.2981 58.041 8.54161 57.4667L9.07068 56.2308C10.1055 53.8073 11.6448 51.632 13.5859 49.8497L27.1195 41.3928L28.735 43.085L12.8226 51.6591L12.5641 51.9741C11.296 53.5451 11.4656 54.8011 11.8331 55.5564C12.4551 56.8568 13.9454 57.3172 15.1327 57.3172H15.6416L35.2292 46.7844C35.7469 46.5132 36.1696 46.0905 36.4408 45.5728C36.7962 44.9023 36.9306 44.1366 36.8247 43.3851C36.7188 42.6336 36.378 41.9349 35.8511 41.3887L21.7885 26.5103L23.7512 21.9264C25.7706 22.9764 28.3473 24.3496 30.5039 25.6056C33.7492 27.4497 36.3236 30.2786 37.8543 33.6829C39.5101 37.447 40.229 42.568 36.6427 48.1777Z" fill="url(#paint3_linear_300_51)"/>
<path d="M19.4131 26.9343L19.3848 26.9989L19.3242 26.8414L19.4131 26.9343Z" fill="url(#paint4_linear_300_51)"/>
<path d="M36.6427 48.1777C36.4595 48.4652 36.291 48.7617 36.1379 49.0662C35.7623 49.8134 34.5022 51.6833 30.6412 54.0459C29.2035 54.9263 27.7657 55.8068 26.3441 56.7195C25.1688 57.4707 23.626 58.4077 21.946 59.2841C19.7007 60.4642 17.1921 61.0534 14.6562 60.9962C12.1204 60.939 9.64086 60.2372 7.45117 58.9569C7.92487 58.5511 8.2981 58.041 8.54161 57.4667L9.07068 56.2308C10.1055 53.8073 11.6448 51.632 13.5859 49.8497L27.1195 41.3928L28.735 43.085L12.8226 51.6591L12.5641 51.9741C11.296 53.5451 11.4656 54.8011 11.8331 55.5564C12.4551 56.8568 13.9454 57.3172 15.1327 57.3172H15.6416L35.2292 46.7844C35.7469 46.5132 36.1696 46.0905 36.4408 45.5728C36.7962 44.9023 36.9306 44.1366 36.8247 43.3851C36.7188 42.6336 36.378 41.9349 35.8511 41.3887L21.7885 26.5103L23.7512 21.9264C25.7706 22.9764 28.3473 24.3496 30.5039 25.6056C33.7492 27.4497 36.3236 30.2786 37.8543 33.6829C39.5101 37.447 40.229 42.568 36.6427 48.1777Z" fill="url(#paint5_linear_300_51)"/>
<path d="M16.0582 23.3883L15.9976 23.5256C15.9956 23.5149 15.9956 23.504 15.9976 23.4933C15.9976 23.4529 15.9976 23.4125 15.9976 23.3721C15.9956 23.3453 15.9956 23.3183 15.9976 23.2914L16.0582 23.3883Z" fill="url(#paint6_linear_300_51)"/>
<path d="M19.4131 26.9343L19.3848 26.9989L19.3242 26.8414L19.4131 26.9343Z" fill="url(#paint7_linear_300_51)"/>
<path d="M34.6796 44.6035C34.6021 44.7683 34.4711 44.9021 34.308 44.9831L15.1324 55.2979C15.1324 55.2979 12.475 55.2979 14.1348 53.2463L31.5617 43.8402C31.6103 43.8133 31.6521 43.7757 31.684 43.7303C31.716 43.6848 31.7372 43.6328 31.7462 43.578C31.7551 43.5232 31.7515 43.4671 31.7356 43.4139C31.7198 43.3606 31.6921 43.3117 31.6546 43.2707L28.8558 40.3023L25.54 36.7806L21.465 32.4269L18.436 29.196L16.5984 27.2493L15.088 25.6339L13.6058 24.0628L5.45978 15.4645C5.45978 15.4645 5.37093 13.6269 7.07524 13.9177L13.5815 20.7834L15.6009 22.9158L15.9482 23.2834C15.9462 23.3102 15.9462 23.3372 15.9482 23.3641C15.9482 23.4045 15.9482 23.4449 15.9482 23.4853C15.9462 23.496 15.9462 23.5069 15.9482 23.5176L16.0088 23.3803L17.5233 24.9958L19.2761 26.8495L19.3366 27.007L19.3649 26.9424L30.5036 38.7111L30.8226 39.0503L34.3524 42.778C34.5915 43.0096 34.7516 43.3104 34.8104 43.638C34.8691 43.9656 34.8233 44.3033 34.6796 44.6035Z" fill="url(#paint8_linear_300_51)"/>
<path d="M16.0582 23.3883L15.9976 23.5256C15.9956 23.5149 15.9956 23.504 15.9976 23.4933C15.9976 23.4529 15.9976 23.4125 15.9976 23.3721C15.9956 23.3453 15.9956 23.3183 15.9976 23.2914L16.0582 23.3883Z" fill="url(#paint9_linear_300_51)"/>
<path d="M19.4131 26.9343L19.3848 26.9989L19.3242 26.8414L19.4131 26.9343Z" fill="url(#paint10_linear_300_51)"/>
<path d="M19.4131 26.9343L19.3848 26.9989L19.3242 26.8414L19.4131 26.9343Z" fill="url(#paint11_linear_300_51)"/>
<path d="M18.4285 29.2283C18.3679 29.3737 18.3073 29.5191 18.2427 29.6604L17.5642 31.2517C16.9099 32.7823 16.2597 34.3089 15.6175 35.8073L13.5982 40.5285L6.70015 56.659C6.52089 57.0916 6.19681 57.4486 5.78337 57.6686C5.74702 57.6686 5.71067 57.705 5.67433 57.7171C5.23411 57.8948 4.72524 57.8382 4.46273 56.9093C4.42586 56.7773 4.40152 56.6421 4.39003 56.5055C4.36629 56.1711 4.42307 55.836 4.55562 55.5281L13.6144 34.2887L15.6337 29.5554L15.7427 29.297L16.607 27.2776L18.4285 29.2283Z" fill="url(#paint12_linear_300_51)"/>
<path d="M30.141 1.45023C30.1393 1.72813 30.0816 2.00285 29.9714 2.25796L22.7502 19.1436C22.4877 19.7535 22.2252 20.3754 21.9425 21.0014C21.3932 22.2857 20.8319 23.5983 20.2665 24.927C19.9797 25.5974 19.6889 26.2719 19.4022 26.9464L19.3739 27.011L19.3133 26.8535L17.5605 24.9997L18.1017 23.7316L18.4208 22.9763L19.5153 20.4158L20.3997 18.344L28.0732 0.351708C28.4046 0.148498 28.78 0.0279879 29.1677 0.000345745C29.6725 -0.0117703 30.1491 0.291129 30.141 1.45023Z" fill="url(#paint13_linear_300_51)"/>
<path d="M16.0582 23.3883L15.9976 23.5256C15.9956 23.515 15.9956 23.504 15.9976 23.4933L16.0582 23.3883Z" fill="url(#paint14_linear_300_51)"/>
<path d="M19.4131 26.9343L19.3848 26.9989L19.3242 26.8414L19.4131 26.9343Z" fill="url(#paint15_linear_300_51)"/>
<path d="M55.0866 27.3664C54.6043 26.5045 53.8928 25.793 53.0309 25.3107C52.1362 24.8174 51.1285 24.5654 50.1069 24.5797C49.2131 24.5584 48.3304 24.7818 47.5544 25.2259C47.211 25.4279 46.9005 25.6813 46.6336 25.9771C46.3127 26.3391 46.0485 26.7476 45.8501 27.1887C45.4072 28.2461 45.1991 29.3871 45.2403 30.5327C45.2038 31.6724 45.4003 32.8076 45.8178 33.8687C45.9878 34.2616 46.2121 34.6286 46.4842 34.9591C46.7641 35.307 47.1048 35.6012 47.4898 35.8274C48.2882 36.2737 49.1926 36.4956 50.1069 36.4696C51.1296 36.4852 52.1384 36.2302 53.0309 35.7305C53.8925 35.2425 54.6036 34.5272 55.0866 33.6627C55.6138 32.7055 55.8773 31.6253 55.8499 30.5327C55.8806 29.4283 55.6172 28.3355 55.0866 27.3664ZM52.0656 32.2128C51.8236 32.671 51.4604 33.0537 51.0156 33.3194C50.5624 33.579 50.0475 33.7116 49.5253 33.7031C49.0006 33.711 48.4833 33.5786 48.027 33.3194C47.5786 33.0582 47.2143 32.6742 46.9769 32.2128C46.7217 31.6795 46.5892 31.0957 46.5892 30.5045C46.5892 29.9132 46.7217 29.3295 46.9769 28.7961C47.2171 28.3398 47.581 27.9605 48.027 27.7016C48.4825 27.4406 49.0003 27.308 49.5253 27.318C50.0443 27.3036 50.557 27.4344 51.0058 27.6955C51.4546 27.9567 51.8216 28.3378 52.0656 28.7961C52.326 29.328 52.4614 29.9123 52.4614 30.5045C52.4614 31.0966 52.326 31.681 52.0656 32.2128ZM43.2734 20.3795V36.2838H46.5044V33.9252L46.4398 30.4964L46.6538 27.0878V20.3795H43.2734Z" fill="url(#paint16_linear_300_51)"/>
<path d="M62.7278 32.5844L59.4968 24.7534H56.0478L61.0436 36.3767L61.1971 36.7321L63.4911 34.3978L62.7278 32.5844ZM65.987 24.7534L62.7278 32.5844L61.8514 34.6966L61.5929 35.0601L61.0436 36.3767L61.0033 36.4777C60.8406 36.8999 60.5804 37.2777 60.244 37.5802C59.9175 37.8166 59.5197 37.9336 59.1172 37.9114C58.7769 37.9089 58.44 37.8432 58.1237 37.7176C57.7958 37.5966 57.4931 37.4158 57.2311 37.1845L56.0195 39.5632C56.4386 39.9173 56.9269 40.1801 57.4533 40.3346C58.029 40.5189 58.6298 40.6129 59.2343 40.6133C59.8879 40.6206 60.5375 40.5112 61.1527 40.2902C61.7644 40.0531 62.3092 39.6705 62.7399 39.1755C63.2878 38.5268 63.7184 37.7874 64.0121 36.9906L69.2018 24.7534H65.987Z" fill="url(#paint17_linear_300_51)"/>
<path d="M77.4331 33.3679C77.0436 33.6597 76.5666 33.8107 76.0802 33.796C75.8867 33.8054 75.6934 33.7743 75.5126 33.7048C75.3318 33.6352 75.1674 33.5288 75.0301 33.3921C74.7584 33.0835 74.6204 32.6797 74.6464 32.2694V22.201H71.3024V32.3179C71.3024 33.691 71.682 34.7209 72.4373 35.4155C73.1925 36.1102 74.2547 36.4534 75.6117 36.4534C76.114 36.4549 76.6146 36.3938 77.1019 36.2717C77.5425 36.167 77.96 35.9822 78.3337 35.7265L77.4331 33.3679ZM69.5254 25.0119V27.5805H77.5179V25.0119H69.5254Z" fill="url(#paint18_linear_300_51)"/>
<path d="M90.3582 27.3584C89.8485 26.4831 89.1025 25.7693 88.2056 25.2987C87.2401 24.818 86.175 24.5716 85.0965 24.5793C84.0181 24.587 82.9566 24.8487 81.9981 25.3431C81.0889 25.831 80.3295 26.5569 79.8011 27.4432C79.2551 28.3742 78.9756 29.4375 78.9934 30.5166C78.9716 31.5912 79.2515 32.6503 79.8011 33.5739C80.3554 34.4787 81.1532 35.2093 82.1031 35.6821C84.0591 36.5979 86.298 36.7025 88.3308 35.9729C89.0945 35.6746 89.7778 35.2015 90.3259 34.5917L88.5448 32.6612C88.1782 33.0207 87.7446 33.3047 87.2686 33.4972C86.7528 33.6922 86.2045 33.7868 85.6531 33.7758C85.0357 33.7909 84.4232 33.6624 83.864 33.4003C83.3693 33.163 82.9581 32.7814 82.6847 32.3058C82.5324 32.0427 82.4207 31.7581 82.3535 31.4617H91.073C91.073 31.3203 91.1013 31.1628 91.1174 31.0013C91.1336 30.8397 91.1377 30.6903 91.1377 30.5611C91.1732 29.4426 90.9038 28.3355 90.3582 27.3584ZM82.3253 29.511C82.3718 29.1692 82.4784 28.8383 82.6403 28.5336C82.8759 28.0949 83.2299 27.7311 83.6621 27.4836C84.1241 27.2291 84.6451 27.101 85.1725 27.112C85.6961 27.101 86.2132 27.2292 86.6709 27.4836C87.0964 27.732 87.4456 28.0924 87.6805 28.5256C87.8461 28.8319 87.9542 29.1658 87.9996 29.511H82.3253Z" fill="url(#paint19_linear_300_51)"/>
<path d="M100.398 33.3356C99.9501 33.5859 99.4448 33.7153 98.9318 33.7112C98.393 33.7191 97.8614 33.5869 97.389 33.3275C96.932 33.0724 96.5567 32.6929 96.3067 32.233C96.0438 31.6998 95.907 31.1132 95.907 30.5186C95.907 29.9241 96.0438 29.3375 96.3067 28.8042C96.5567 28.3443 96.932 27.9648 97.389 27.7097C97.8607 27.4486 98.3928 27.3162 98.9318 27.326C99.446 27.3208 99.9522 27.4532 100.398 27.7097C100.879 28.0004 101.27 28.4201 101.525 28.9213L104.117 27.528C103.707 26.6057 103.006 25.8427 102.122 25.3552C101.151 24.8278 100.057 24.5646 98.952 24.5919C97.7984 24.571 96.6572 24.8331 95.6282 25.3552C94.6782 25.8453 93.8814 26.5875 93.3251 27.5004C92.7688 28.4133 92.4746 29.4617 92.4746 30.5307C92.4746 31.5998 92.7688 32.6482 93.3251 33.5611C93.8814 34.474 94.6782 35.2161 95.6282 35.7063C96.6575 36.2271 97.7987 36.4878 98.952 36.4656C100.057 36.4941 101.15 36.2322 102.122 35.7063C103.002 35.2223 103.702 34.4674 104.117 33.5537L101.525 32.1361C101.273 32.6366 100.882 33.0533 100.398 33.3356Z" fill="url(#paint20_linear_300_51)"/>
<path d="M117.126 26.801C116.745 26.0806 116.149 25.4963 115.422 25.129C114.66 24.7526 113.819 24.5643 112.97 24.5797C112.053 24.5646 111.147 24.7784 110.333 25.2017C109.955 25.4048 109.609 25.6604 109.303 25.961V20.3795H105.959V36.2838H109.303V30.5812C109.279 29.9756 109.401 29.3731 109.658 28.8244C109.872 28.3903 110.217 28.0343 110.644 27.8066C111.085 27.5804 111.574 27.4667 112.069 27.4755C112.388 27.4565 112.706 27.5057 113.003 27.62C113.301 27.7342 113.57 27.9108 113.794 28.1378C114.201 28.5821 114.404 29.2686 114.404 30.1975V36.2838H117.748V29.6806C117.788 28.6835 117.574 27.6926 117.126 26.801Z" fill="url(#paint21_linear_300_51)"/>
<path d="M129.702 31.2153C129.456 30.8161 129.115 30.4844 128.709 30.25C128.283 30.0048 127.825 29.8199 127.348 29.7008C126.857 29.5768 126.359 29.4811 125.858 29.414C125.365 29.3494 124.908 29.2727 124.497 29.1878C124.148 29.1253 123.812 29.0095 123.499 28.8446C123.382 28.7845 123.284 28.6922 123.217 28.5784C123.151 28.4646 123.118 28.3341 123.123 28.2024C123.129 28.0384 123.181 27.8793 123.272 27.743C123.363 27.6067 123.491 27.4987 123.64 27.431C124.145 27.1978 124.701 27.095 125.256 27.1322C125.807 27.1347 126.357 27.1956 126.895 27.3139C127.489 27.4446 128.057 27.6725 128.576 27.9884L129.69 25.6096C129.064 25.2479 128.381 24.994 127.671 24.8584C126.882 24.6901 126.078 24.6035 125.272 24.5999C124.293 24.5767 123.318 24.7412 122.4 25.0846C121.68 25.346 121.045 25.8017 120.567 26.4012C120.146 26.9559 119.923 27.6354 119.933 28.3316C119.908 28.8943 120.038 29.453 120.308 29.9471C120.553 30.3541 120.896 30.693 121.306 30.9325C121.735 31.1802 122.197 31.3639 122.679 31.4778C123.18 31.5989 123.677 31.6959 124.169 31.7686C124.662 31.8412 125.114 31.9099 125.53 31.9826C125.876 32.0326 126.211 32.1376 126.524 32.2936C126.639 32.3477 126.736 32.4342 126.803 32.5425C126.869 32.6509 126.903 32.7763 126.9 32.9034C126.9 33.0641 126.855 33.2217 126.77 33.3582C126.685 33.4946 126.563 33.6043 126.419 33.6748C125.903 33.898 125.34 33.9936 124.779 33.9535C124.057 33.9521 123.339 33.8473 122.647 33.6425C121.986 33.4631 121.354 33.1911 120.769 32.8348L119.658 35.2378C120.322 35.6508 121.049 35.951 121.811 36.1263C122.735 36.3621 123.684 36.4802 124.638 36.4776C125.641 36.5027 126.64 36.3439 127.586 36.0092C128.31 35.7534 128.951 35.3052 129.44 34.7127C129.864 34.1718 130.091 33.502 130.082 32.8146C130.111 32.2561 129.979 31.7011 129.702 31.2153Z" fill="url(#paint22_linear_300_51)"/>
<path d="M143.146 27.431C142.6 26.5433 141.822 25.8214 140.896 25.343C139.882 24.841 138.765 24.5799 137.633 24.5799C136.501 24.5799 135.384 24.841 134.37 25.343C133.424 25.8303 132.633 26.5737 132.089 27.4884C131.545 28.4032 131.269 29.4525 131.292 30.5166C131.269 31.5913 131.549 32.6509 132.1 33.5738C132.65 34.4649 133.428 35.1928 134.354 35.682C135.366 36.1907 136.484 36.4556 137.617 36.4556C138.75 36.4556 139.868 36.1907 140.88 35.682C141.575 35.2928 142.185 34.7693 142.675 34.1419C143.164 33.5145 143.525 32.7959 143.734 32.0279C143.943 31.2599 143.998 30.458 143.894 29.6687C143.79 28.8795 143.53 28.1188 143.13 27.431H143.146ZM140.202 32.2209C139.964 32.6811 139.602 33.0648 139.156 33.3275C138.695 33.5792 138.178 33.7111 137.653 33.7111C137.128 33.7111 136.612 33.5792 136.151 33.3275C135.703 33.063 135.337 32.6801 135.093 32.2209C134.832 31.689 134.697 31.1047 134.697 30.5125C134.697 29.9204 134.832 29.336 135.093 28.8042C135.339 28.3495 135.705 27.9709 136.151 27.7097C136.612 27.458 137.128 27.3261 137.653 27.3261C138.178 27.3261 138.695 27.458 139.156 27.7097C139.598 27.9665 139.96 28.3413 140.202 28.7921C140.457 29.3254 140.589 29.9092 140.589 30.5004C140.589 31.0917 140.457 31.6754 140.202 32.2088V32.2209Z" fill="url(#paint23_linear_300_51)"/>
<path d="M146.191 20.3795V36.2838H149.531V20.3795H146.191Z" fill="url(#paint24_linear_300_51)"/>
<defs>
<linearGradient id="paint0_linear_300_51" x1="16.0097" y1="0.828812" x2="16.0097" y2="49.0817" gradientUnits="userSpaceOnUse">
<stop stop-color="#27AAE1"/>
<stop offset="1" stop-color="#2B3990"/>
</linearGradient>
<linearGradient id="paint1_linear_300_51" x1="19.3686" y1="0.829383" x2="19.3686" y2="49.0815" gradientUnits="userSpaceOnUse">
<stop stop-color="#27AAE1"/>
<stop offset="1" stop-color="#2B3990"/>
</linearGradient>
<linearGradient id="paint2_linear_300_51" x1="6.98713" y1="0.860611" x2="6.98713" y2="47.4628" gradientUnits="userSpaceOnUse">
<stop stop-color="#27AAE1"/>
<stop offset="1" stop-color="#2B3990"/>
</linearGradient>
<linearGradient id="paint3_linear_300_51" x1="23.3353" y1="0.824304" x2="23.3353" y2="49.0824" gradientUnits="userSpaceOnUse">
<stop stop-color="#27AAE1"/>
<stop offset="1" stop-color="#2B3990"/>
</linearGradient>
<linearGradient id="paint4_linear_300_51" x1="19.3686" y1="0.829383" x2="19.3686" y2="49.0815" gradientUnits="userSpaceOnUse">
<stop stop-color="#27AAE1"/>
<stop offset="1" stop-color="#2B3990"/>
</linearGradient>
<linearGradient id="paint5_linear_300_51" x1="23.3353" y1="0.824304" x2="23.3353" y2="49.0824" gradientUnits="userSpaceOnUse">
<stop stop-color="#27AAE1"/>
<stop offset="1" stop-color="#2B3990"/>
</linearGradient>
<linearGradient id="paint6_linear_300_51" x1="16.0097" y1="0.828812" x2="16.0097" y2="49.0817" gradientUnits="userSpaceOnUse">
<stop stop-color="#27AAE1"/>
<stop offset="1" stop-color="#2B3990"/>
</linearGradient>
<linearGradient id="paint7_linear_300_51" x1="19.3686" y1="0.829383" x2="19.3686" y2="49.0815" gradientUnits="userSpaceOnUse">
<stop stop-color="#27AAE1"/>
<stop offset="1" stop-color="#2B3990"/>
</linearGradient>
<linearGradient id="paint8_linear_300_51" x1="20.1565" y1="0.828356" x2="20.1565" y2="49.0824" gradientUnits="userSpaceOnUse">
<stop stop-color="#27AAE1"/>
<stop offset="1" stop-color="#2B3990"/>
</linearGradient>
<linearGradient id="paint9_linear_300_51" x1="16.0097" y1="0.828812" x2="16.0097" y2="49.0817" gradientUnits="userSpaceOnUse">
<stop stop-color="#27AAE1"/>
<stop offset="1" stop-color="#2B3990"/>
</linearGradient>
<linearGradient id="paint10_linear_300_51" x1="19.3686" y1="0.829383" x2="19.3686" y2="49.0815" gradientUnits="userSpaceOnUse">
<stop stop-color="#27AAE1"/>
<stop offset="1" stop-color="#2B3990"/>
</linearGradient>
<linearGradient id="paint11_linear_300_51" x1="19.3686" y1="0.829383" x2="19.3686" y2="49.0815" gradientUnits="userSpaceOnUse">
<stop stop-color="#27AAE1"/>
<stop offset="1" stop-color="#2B3990"/>
</linearGradient>
<linearGradient id="paint12_linear_300_51" x1="11.3971" y1="0.828363" x2="11.3971" y2="49.0824" gradientUnits="userSpaceOnUse">
<stop stop-color="#27AAE1"/>
<stop offset="1" stop-color="#2B3990"/>
</linearGradient>
<linearGradient id="paint13_linear_300_51" x1="23.8568" y1="0.828273" x2="23.8568" y2="49.0823" gradientUnits="userSpaceOnUse">
<stop stop-color="#27AAE1"/>
<stop offset="1" stop-color="#2B3990"/>
</linearGradient>
<linearGradient id="paint14_linear_300_51" x1="16.0258" y1="0.828544" x2="16.0258" y2="49.0821" gradientUnits="userSpaceOnUse">
<stop stop-color="#27AAE1"/>
<stop offset="1" stop-color="#2B3990"/>
</linearGradient>
<linearGradient id="paint15_linear_300_51" x1="19.3686" y1="0.829383" x2="19.3686" y2="49.0815" gradientUnits="userSpaceOnUse">
<stop stop-color="#27AAE1"/>
<stop offset="1" stop-color="#2B3990"/>
</linearGradient>
<linearGradient id="paint16_linear_300_51" x1="49.5697" y1="2.52053" x2="49.5697" y2="50.7705" gradientUnits="userSpaceOnUse">
<stop stop-color="#27AAE1"/>
<stop offset="1" stop-color="#2B3990"/>
</linearGradient>
<linearGradient id="paint17_linear_300_51" x1="62.6026" y1="2.52055" x2="62.6026" y2="50.7746" gradientUnits="userSpaceOnUse">
<stop stop-color="#27AAE1"/>
<stop offset="1" stop-color="#2B3990"/>
</linearGradient>
<linearGradient id="paint18_linear_300_51" x1="73.9316" y1="2.51649" x2="73.9316" y2="50.7705" gradientUnits="userSpaceOnUse">
<stop stop-color="#27AAE1"/>
<stop offset="1" stop-color="#2B3990"/>
</linearGradient>
<linearGradient id="paint19_linear_300_51" x1="85.0756" y1="2.51655" x2="85.0756" y2="50.7706" gradientUnits="userSpaceOnUse">
<stop stop-color="#27AAE1"/>
<stop offset="1" stop-color="#2B3990"/>
</linearGradient>
<linearGradient id="paint20_linear_300_51" x1="98.322" y1="2.5165" x2="98.322" y2="50.7705" gradientUnits="userSpaceOnUse">
<stop stop-color="#27AAE1"/>
<stop offset="1" stop-color="#2B3990"/>
</linearGradient>
<linearGradient id="paint21_linear_300_51" x1="111.855" y1="2.5165" x2="111.855" y2="50.7746" gradientUnits="userSpaceOnUse">
<stop stop-color="#27AAE1"/>
<stop offset="1" stop-color="#2B3990"/>
</linearGradient>
<linearGradient id="paint22_linear_300_51" x1="124.876" y1="2.51646" x2="124.876" y2="50.7705" gradientUnits="userSpaceOnUse">
<stop stop-color="#27AAE1"/>
<stop offset="1" stop-color="#2B3990"/>
</linearGradient>
<linearGradient id="paint23_linear_300_51" x1="137.629" y1="2.51645" x2="137.629" y2="50.7705" gradientUnits="userSpaceOnUse">
<stop stop-color="#27AAE1"/>
<stop offset="1" stop-color="#2B3990"/>
</linearGradient>
<linearGradient id="paint24_linear_300_51" x1="147.863" y1="2.5165" x2="147.863" y2="50.7746" gradientUnits="userSpaceOnUse">
<stop stop-color="#27AAE1"/>
<stop offset="1" stop-color="#2B3990"/>
</linearGradient>
</defs>
</svg>
